%FSLAX25Y25*%
%MOIN*%
G70*
G01*
G75*
G04 Layer_Color=32768*
%ADD10R,0.05906X0.04331*%
%ADD11R,0.16142X0.10236*%
%ADD12C,0.07874*%
%ADD13C,0.03937*%
%ADD14C,0.03150*%
%ADD15C,0.01181*%
%ADD16R,0.41000X0.63000*%
%ADD17C,0.25590*%
%ADD18C,0.11811*%
%ADD19C,0.12598*%
%ADD20C,0.05906*%
%ADD21R,0.05906X0.05906*%
%ADD22C,0.06693*%
%ADD23R,0.06693X0.06693*%
%ADD24C,0.27559*%
%ADD25C,0.04724*%
%ADD26C,0.07874*%
%ADD27R,0.05906X0.05906*%
%ADD28C,0.05000*%
%ADD29C,0.00984*%
D15*
X60909Y134000D02*
G03*
X60909Y134000I-13386J0D01*
G01*
D29*
X510436Y62920D02*
X509452Y63904D01*
X507484D01*
X506500Y62920D01*
Y58984D01*
X507484Y58000D01*
X509452D01*
X510436Y58984D01*
X513387Y61936D02*
X515355D01*
X516339Y60952D01*
Y58000D01*
X513387D01*
X512404Y58984D01*
X513387Y59968D01*
X516339D01*
X518307Y56032D02*
Y61936D01*
X521259D01*
X522243Y60952D01*
Y58984D01*
X521259Y58000D01*
X518307D01*
X525195Y61936D02*
X527163D01*
X528147Y60952D01*
Y58000D01*
X525195D01*
X524211Y58984D01*
X525195Y59968D01*
X528147D01*
X539954Y63904D02*
Y58000D01*
X537002D01*
X536018Y58984D01*
Y60952D01*
X537002Y61936D01*
X539954D01*
X544873Y58000D02*
X542906D01*
X541922Y58984D01*
Y60952D01*
X542906Y61936D01*
X544873D01*
X545857Y60952D01*
Y59968D01*
X541922D01*
X557664Y61936D02*
X554713D01*
X553729Y60952D01*
Y58984D01*
X554713Y58000D01*
X557664D01*
X560616D02*
X562584D01*
X563568Y58984D01*
Y60952D01*
X562584Y61936D01*
X560616D01*
X559632Y60952D01*
Y58984D01*
X560616Y58000D01*
X565536Y61936D02*
Y58000D01*
Y59968D01*
X566520Y60952D01*
X567504Y61936D01*
X568488D01*
X572424Y62920D02*
Y61936D01*
X571440D01*
X573408D01*
X572424D01*
Y58984D01*
X573408Y58000D01*
X579311D02*
X577343D01*
X576359Y58984D01*
Y60952D01*
X577343Y61936D01*
X579311D01*
X580295Y60952D01*
Y59968D01*
X576359D01*
X588167Y58000D02*
X590134D01*
X589150D01*
Y61936D01*
X588167D01*
X593086Y58000D02*
Y61936D01*
X596038D01*
X597022Y60952D01*
Y58000D01*
X599974Y62920D02*
Y61936D01*
X598990D01*
X600958D01*
X599974D01*
Y58984D01*
X600958Y58000D01*
X606861D02*
X604893D01*
X603909Y58984D01*
Y60952D01*
X604893Y61936D01*
X606861D01*
X607845Y60952D01*
Y59968D01*
X603909D01*
X609813Y61936D02*
Y58000D01*
Y59968D01*
X610797Y60952D01*
X611781Y61936D01*
X612765D01*
X615717Y58000D02*
X617685D01*
X616701D01*
Y61936D01*
X615717D01*
X621620Y58000D02*
X623588D01*
X624572Y58984D01*
Y60952D01*
X623588Y61936D01*
X621620D01*
X620636Y60952D01*
Y58984D01*
X621620Y58000D01*
X626540Y61936D02*
Y58000D01*
Y59968D01*
X627524Y60952D01*
X628508Y61936D01*
X629492D01*
M02*
