M48
;Layer_Color=9474304
;FILE_FORMAT=2:5
INCH,LZ
;TYPE=PLATED
T1F00S00C0.02362
T2F00S00C0.02800
T3F00S00C0.03543
T4F00S00C0.04331
T5F00S00C0.05512
T6F00S00C0.07874
T7F00S00C0.10236
T8F00S00C0.11811
T9F00S00C0.12598
T10F00S00C0.14961
T11F00S00C0.25591
%
T01
X0262575Y0019842
Y0027716
Y0035591
Y0043465
Y0051339
Y0059213
Y0067087
Y0074961
Y0082835
T02
X03335Y008
X0359
X02715Y0067
X02435Y00675
T03
X0338Y0021
Y0031
Y0041
X0348
Y0031
Y0021
X0358
Y0031
Y0041
X0381Y0096
Y0106
Y0116
X0403Y01135
X0413
T04
X04385Y00895
X04485
X04585
T05
X0303Y00405
T06
X0210016Y0089724
X0140961Y008374
Y0035315
T07
X0285992Y0023492
X0320008
Y0057508
X0285992
T08
X042516Y0030607
X0229307Y008
X0186
X0055081Y0030607
Y0245721
X042516
T09
X0453035Y0045417
X0019965
Y0222583
X0453035
T10
X04484Y01551
T11
X0047524Y0134
M30
