%FSLAX25Y25*%
%MOIN*%
G70*
G01*
G75*
G04 Layer_Physical_Order=1*
G04 Layer_Color=255*
%ADD10R,0.05906X0.04331*%
%ADD11R,0.16142X0.10236*%
%ADD12C,0.07874*%
%ADD13C,0.03937*%
%ADD14C,0.03150*%
%ADD15C,0.01181*%
%ADD16R,0.41000X0.63000*%
%ADD17C,0.25590*%
%ADD18C,0.11811*%
%ADD19C,0.12598*%
%ADD20C,0.05906*%
%ADD21R,0.05906X0.05906*%
%ADD22C,0.06693*%
%ADD23R,0.06693X0.06693*%
%ADD24C,0.27559*%
%ADD25C,0.04724*%
%ADD26C,0.07874*%
%ADD27R,0.05906X0.05906*%
%ADD28C,0.05000*%
G36*
X471378Y172501D02*
X470916Y172309D01*
X468863Y174363D01*
X468467Y174627D01*
X468000Y174720D01*
X430000D01*
X429533Y174627D01*
X429137Y174363D01*
X425137Y170363D01*
X424873Y169967D01*
X424780Y169500D01*
Y105000D01*
X424873Y104533D01*
X425137Y104137D01*
X425533Y103873D01*
X426000Y103780D01*
X471000D01*
X471378Y103469D01*
Y1622D01*
X1622D01*
Y266378D01*
X471378D01*
Y172501D01*
D02*
G37*
%LPC*%
G36*
X19965Y52752D02*
X18534Y52611D01*
X17158Y52193D01*
X15890Y51516D01*
X14778Y50604D01*
X13866Y49492D01*
X13188Y48224D01*
X12771Y46848D01*
X12630Y45417D01*
X12771Y43986D01*
X13188Y42610D01*
X13866Y41342D01*
X14778Y40231D01*
X15890Y39319D01*
X17158Y38641D01*
X18534Y38224D01*
X19965Y38083D01*
X21396Y38224D01*
X22771Y38641D01*
X24039Y39319D01*
X25151Y40231D01*
X26063Y41342D01*
X26741Y42610D01*
X27158Y43986D01*
X27299Y45417D01*
X27158Y46848D01*
X26741Y48224D01*
X26063Y49492D01*
X25151Y50604D01*
X24039Y51516D01*
X22771Y52193D01*
X21396Y52611D01*
X19965Y52752D01*
D02*
G37*
G36*
X303000Y47439D02*
X301646Y47306D01*
X300345Y46911D01*
X299145Y46270D01*
X298093Y45407D01*
X297231Y44355D01*
X296589Y43155D01*
X296194Y41854D01*
X296061Y40500D01*
X296194Y39146D01*
X296589Y37845D01*
X297231Y36645D01*
X298093Y35593D01*
X299145Y34730D01*
X300345Y34089D01*
X301646Y33694D01*
X303000Y33561D01*
X304354Y33694D01*
X305655Y34089D01*
X306855Y34730D01*
X307907Y35593D01*
X308769Y36645D01*
X309411Y37845D01*
X309806Y39146D01*
X309939Y40500D01*
X309806Y41854D01*
X309411Y43155D01*
X308769Y44355D01*
X307907Y45407D01*
X306855Y46270D01*
X305655Y46911D01*
X304354Y47306D01*
X303000Y47439D01*
D02*
G37*
G36*
X348000Y44987D02*
X346968Y44851D01*
X346007Y44453D01*
X345181Y43819D01*
X344547Y42993D01*
X344149Y42032D01*
X344013Y41000D01*
X344149Y39968D01*
X344547Y39007D01*
X345181Y38181D01*
X346007Y37547D01*
X346968Y37149D01*
X348000Y37013D01*
X349032Y37149D01*
X349993Y37547D01*
X350819Y38181D01*
X351453Y39007D01*
X351851Y39968D01*
X351987Y41000D01*
X351851Y42032D01*
X351453Y42993D01*
X350819Y43819D01*
X349993Y44453D01*
X349032Y44851D01*
X348000Y44987D01*
D02*
G37*
G36*
X453035Y52752D02*
X451605Y52611D01*
X450229Y52193D01*
X448961Y51516D01*
X447849Y50604D01*
X446937Y49492D01*
X446259Y48224D01*
X445842Y46848D01*
X445701Y45417D01*
X445842Y43986D01*
X446259Y42610D01*
X446937Y41342D01*
X447849Y40231D01*
X448961Y39319D01*
X450229Y38641D01*
X451605Y38224D01*
X453035Y38083D01*
X454466Y38224D01*
X455842Y38641D01*
X457110Y39319D01*
X458222Y40231D01*
X459134Y41342D01*
X459812Y42610D01*
X460229Y43986D01*
X460370Y45417D01*
X460229Y46848D01*
X459812Y48224D01*
X459134Y49492D01*
X458222Y50604D01*
X457110Y51516D01*
X455842Y52193D01*
X454466Y52611D01*
X453035Y52752D01*
D02*
G37*
G36*
X458500Y94480D02*
X457211Y94310D01*
X456010Y93813D01*
X454979Y93021D01*
X454187Y91990D01*
X453690Y90789D01*
X453520Y89500D01*
Y77063D01*
X448937Y72480D01*
X429500D01*
X429500Y72480D01*
X428211Y72310D01*
X427010Y71812D01*
X425979Y71021D01*
X425979Y71021D01*
X396036Y41078D01*
X392571D01*
Y42217D01*
X374429D01*
Y41078D01*
X362969D01*
X362810Y42289D01*
X362313Y43490D01*
X361521Y44521D01*
X360490Y45312D01*
X359289Y45810D01*
X358000Y45980D01*
X356711Y45810D01*
X355510Y45312D01*
X354479Y44521D01*
X353688Y43490D01*
X353190Y42289D01*
X353020Y41000D01*
Y36500D01*
X353020Y36500D01*
X353020Y36500D01*
Y31000D01*
Y21000D01*
X353190Y19711D01*
X353688Y18510D01*
X354479Y17479D01*
X355510Y16688D01*
X356711Y16190D01*
X358000Y16020D01*
X359289Y16190D01*
X360490Y16688D01*
X361521Y17479D01*
X362313Y18510D01*
X362810Y19711D01*
X362980Y21000D01*
Y31000D01*
Y31119D01*
X374429D01*
Y29980D01*
X392571D01*
Y31119D01*
X398098D01*
X398098Y31119D01*
X399387Y31288D01*
X400237Y31640D01*
X400588Y31786D01*
X401619Y32577D01*
X431563Y62520D01*
X451000D01*
X451000Y62520D01*
X452289Y62690D01*
X453490Y63187D01*
X454521Y63979D01*
X462021Y71479D01*
X462021Y71479D01*
X462813Y72510D01*
X463310Y73711D01*
X463480Y75000D01*
X463480Y75000D01*
Y89500D01*
X463310Y90789D01*
X462813Y91990D01*
X462021Y93021D01*
X460990Y93813D01*
X459789Y94310D01*
X458500Y94480D01*
D02*
G37*
G36*
X186000Y86939D02*
X184646Y86806D01*
X183345Y86411D01*
X182145Y85769D01*
X181093Y84907D01*
X180230Y83855D01*
X179589Y82655D01*
X179194Y81354D01*
X179061Y80000D01*
X179194Y78646D01*
X179589Y77345D01*
X180230Y76145D01*
X181093Y75093D01*
X182145Y74230D01*
X183345Y73589D01*
X184646Y73194D01*
X186000Y73061D01*
X187354Y73194D01*
X188655Y73589D01*
X189855Y74230D01*
X190907Y75093D01*
X191770Y76145D01*
X192411Y77345D01*
X192806Y78646D01*
X192939Y80000D01*
X192806Y81354D01*
X192411Y82655D01*
X191770Y83855D01*
X190907Y84907D01*
X189855Y85769D01*
X188655Y86411D01*
X187354Y86806D01*
X186000Y86939D01*
D02*
G37*
G36*
X74048Y83553D02*
X51319D01*
Y68695D01*
X74048D01*
Y83553D01*
D02*
G37*
G36*
X257937Y97417D02*
X256648Y97247D01*
X255945Y96956D01*
X255447Y96750D01*
X254416Y95958D01*
X254416Y95958D01*
X247979Y89521D01*
X247187Y88490D01*
X246690Y87289D01*
X246520Y86000D01*
X246520Y86000D01*
Y71500D01*
X246520Y71500D01*
X246690Y70211D01*
X246965Y69549D01*
X246532Y69299D01*
X245996Y69996D01*
X245265Y70557D01*
X244414Y70910D01*
X243500Y71030D01*
X242586Y70910D01*
X241735Y70557D01*
X241004Y69996D01*
X240443Y69265D01*
X240090Y68414D01*
X239970Y67500D01*
X240090Y66586D01*
X240443Y65735D01*
X240506Y65653D01*
Y55000D01*
X240608Y54225D01*
X240696Y54014D01*
X240907Y53503D01*
X241383Y52883D01*
X252918Y41347D01*
X253538Y40872D01*
X253837Y40748D01*
X254260Y40573D01*
X255035Y40470D01*
X261017D01*
X261697Y40189D01*
X262575Y40073D01*
X263453Y40189D01*
X264270Y40528D01*
X264973Y41067D01*
X265512Y41769D01*
X265850Y42587D01*
X265966Y43465D01*
X265850Y44342D01*
X265512Y45160D01*
X264973Y45862D01*
X264270Y46401D01*
X263453Y46740D01*
X262575Y46856D01*
X261697Y46740D01*
X261017Y46459D01*
X256276D01*
X246494Y56240D01*
Y65653D01*
X246557Y65735D01*
X246910Y66586D01*
X247030Y67500D01*
X246910Y68414D01*
X246780Y68727D01*
X247213Y68977D01*
X247979Y67979D01*
X252392Y63565D01*
X252392Y63565D01*
X253424Y62774D01*
X254625Y62277D01*
X255913Y62107D01*
X260046D01*
X260207Y61633D01*
X260177Y61611D01*
X259638Y60908D01*
X259299Y60090D01*
X259184Y59213D01*
X259299Y58335D01*
X259638Y57517D01*
X260177Y56815D01*
X260879Y56276D01*
X261697Y55937D01*
X262234Y55866D01*
X262395Y55393D01*
X261559Y54557D01*
X260879Y54276D01*
X260177Y53737D01*
X259638Y53034D01*
X259299Y52216D01*
X259184Y51339D01*
X259299Y50461D01*
X259638Y49643D01*
X260177Y48941D01*
X260879Y48402D01*
X261697Y48063D01*
X262575Y47947D01*
X263453Y48063D01*
X264270Y48402D01*
X264973Y48941D01*
X265512Y49643D01*
X265793Y50323D01*
X273617Y58147D01*
X274093Y58767D01*
X274305Y59277D01*
X274392Y59489D01*
X274494Y60264D01*
Y65153D01*
X274557Y65235D01*
X274910Y66086D01*
X275030Y67000D01*
X274910Y67914D01*
X274557Y68765D01*
X273996Y69496D01*
X273265Y70057D01*
X272414Y70410D01*
X271500Y70530D01*
X270586Y70410D01*
X269735Y70057D01*
X269004Y69496D01*
X268443Y68765D01*
X268090Y67914D01*
X268018Y67365D01*
X267518D01*
X267385Y68375D01*
X266887Y69576D01*
X266096Y70608D01*
X265065Y71399D01*
X264132Y71785D01*
X264313Y71966D01*
X303172D01*
X303947Y72069D01*
X304158Y72156D01*
X304669Y72368D01*
X305289Y72843D01*
X307116Y74671D01*
X318071D01*
Y86907D01*
X299929D01*
Y77955D01*
X264132D01*
X263453Y78236D01*
X262575Y78352D01*
X261697Y78236D01*
X260879Y77898D01*
X260177Y77359D01*
X259638Y76656D01*
X259299Y75838D01*
X259184Y74961D01*
X259299Y74083D01*
X259638Y73265D01*
X260177Y72563D01*
X260207Y72540D01*
X260046Y72066D01*
X257976D01*
X256480Y73563D01*
Y83937D01*
X260000Y87457D01*
X289000D01*
X290289Y87627D01*
X291490Y88125D01*
X292521Y88916D01*
X292794Y89272D01*
X292953D01*
Y89478D01*
X293313Y89947D01*
X293810Y91148D01*
X293980Y92437D01*
X293810Y93726D01*
X293313Y94927D01*
X292953Y95396D01*
Y95602D01*
X292794D01*
X292521Y95958D01*
X291490Y96750D01*
X290289Y97247D01*
X289000Y97417D01*
X257937D01*
X257937Y97417D01*
D02*
G37*
G36*
X55081Y37546D02*
X53727Y37413D01*
X52425Y37018D01*
X51226Y36377D01*
X50174Y35514D01*
X49311Y34462D01*
X48670Y33263D01*
X48275Y31961D01*
X48142Y30607D01*
X48275Y29254D01*
X48670Y27952D01*
X49311Y26752D01*
X50174Y25701D01*
X51226Y24838D01*
X52425Y24196D01*
X53727Y23802D01*
X55081Y23668D01*
X56435Y23802D01*
X57736Y24196D01*
X58936Y24838D01*
X59987Y25701D01*
X60850Y26752D01*
X61492Y27952D01*
X61887Y29254D01*
X62020Y30607D01*
X61887Y31961D01*
X61492Y33263D01*
X60850Y34462D01*
X59987Y35514D01*
X58936Y36377D01*
X57736Y37018D01*
X56435Y37413D01*
X55081Y37546D01*
D02*
G37*
G36*
X425160D02*
X423806Y37413D01*
X422504Y37018D01*
X421305Y36377D01*
X420253Y35514D01*
X419390Y34462D01*
X418749Y33263D01*
X418354Y31961D01*
X418221Y30607D01*
X418354Y29254D01*
X418749Y27952D01*
X419390Y26752D01*
X420253Y25701D01*
X421305Y24838D01*
X422504Y24196D01*
X423806Y23802D01*
X425160Y23668D01*
X426513Y23802D01*
X427815Y24196D01*
X429015Y24838D01*
X430066Y25701D01*
X430929Y26752D01*
X431570Y27952D01*
X431965Y29254D01*
X432099Y30607D01*
X431965Y31961D01*
X431570Y33263D01*
X430929Y34462D01*
X430066Y35514D01*
X429015Y36377D01*
X427815Y37018D01*
X426513Y37413D01*
X425160Y37546D01*
D02*
G37*
G36*
X262575Y23234D02*
X261697Y23118D01*
X260879Y22779D01*
X260177Y22241D01*
X259638Y21538D01*
X259299Y20720D01*
X259184Y19842D01*
X259299Y18965D01*
X259638Y18147D01*
X260177Y17445D01*
X260879Y16906D01*
X261697Y16567D01*
X262575Y16451D01*
X263453Y16567D01*
X264270Y16906D01*
X264973Y17445D01*
X265512Y18147D01*
X265850Y18965D01*
X265966Y19842D01*
X265850Y20720D01*
X265512Y21538D01*
X264973Y22241D01*
X264270Y22779D01*
X263453Y23118D01*
X262575Y23234D01*
D02*
G37*
G36*
X348000Y24987D02*
X346968Y24851D01*
X346007Y24453D01*
X345181Y23819D01*
X344547Y22993D01*
X344149Y22032D01*
X344013Y21000D01*
X344149Y19968D01*
X344547Y19007D01*
X345181Y18181D01*
X346007Y17547D01*
X346968Y17149D01*
X348000Y17013D01*
X349032Y17149D01*
X349993Y17547D01*
X350819Y18181D01*
X351453Y19007D01*
X351851Y19968D01*
X351987Y21000D01*
X351851Y22032D01*
X351453Y22993D01*
X350819Y23819D01*
X349993Y24453D01*
X349032Y24851D01*
X348000Y24987D01*
D02*
G37*
G36*
X140961Y40295D02*
X139672Y40125D01*
X138471Y39627D01*
X137440Y38836D01*
X136648Y37805D01*
X136151Y36604D01*
X135981Y35315D01*
X136151Y34026D01*
X136648Y32825D01*
X137440Y31794D01*
X138471Y31003D01*
X139672Y30505D01*
X140961Y30335D01*
X142250Y30505D01*
X143450Y31003D01*
X144482Y31794D01*
X145273Y32825D01*
X145771Y34026D01*
X145940Y35315D01*
X145771Y36604D01*
X145273Y37805D01*
X144482Y38836D01*
X143450Y39627D01*
X142250Y40125D01*
X140961Y40295D01*
D02*
G37*
G36*
X262575Y38982D02*
X261697Y38866D01*
X260879Y38527D01*
X260177Y37988D01*
X259638Y37286D01*
X259299Y36468D01*
X259184Y35591D01*
X259299Y34713D01*
X259638Y33895D01*
X260177Y33193D01*
X260879Y32654D01*
X261697Y32315D01*
X262575Y32199D01*
X263453Y32315D01*
X264270Y32654D01*
X264973Y33193D01*
X265512Y33895D01*
X265850Y34713D01*
X265966Y35591D01*
X265850Y36468D01*
X265512Y37286D01*
X264973Y37988D01*
X264270Y38527D01*
X263453Y38866D01*
X262575Y38982D01*
D02*
G37*
G36*
Y31108D02*
X261697Y30992D01*
X260879Y30653D01*
X260177Y30114D01*
X259638Y29412D01*
X259299Y28594D01*
X259184Y27716D01*
X259299Y26839D01*
X259638Y26021D01*
X260177Y25319D01*
X260879Y24780D01*
X261697Y24441D01*
X262575Y24325D01*
X263453Y24441D01*
X264270Y24780D01*
X264973Y25319D01*
X265512Y26021D01*
X265850Y26839D01*
X265966Y27716D01*
X265850Y28594D01*
X265512Y29412D01*
X264973Y30114D01*
X264270Y30653D01*
X263453Y30992D01*
X262575Y31108D01*
D02*
G37*
G36*
X348000Y34987D02*
X346968Y34851D01*
X346007Y34453D01*
X345181Y33819D01*
X344547Y32993D01*
X344149Y32032D01*
X344013Y31000D01*
X344149Y29968D01*
X344547Y29007D01*
X345181Y28181D01*
X346007Y27547D01*
X346968Y27149D01*
X348000Y27013D01*
X349032Y27149D01*
X349993Y27547D01*
X350819Y28181D01*
X351453Y29007D01*
X351851Y29968D01*
X351987Y31000D01*
X351851Y32032D01*
X351453Y32993D01*
X350819Y33819D01*
X349993Y34453D01*
X349032Y34851D01*
X348000Y34987D01*
D02*
G37*
G36*
X229307Y86939D02*
X227953Y86806D01*
X226652Y86411D01*
X225452Y85769D01*
X224400Y84907D01*
X223538Y83855D01*
X222896Y82655D01*
X222501Y81354D01*
X222368Y80000D01*
X222501Y78646D01*
X222896Y77345D01*
X223538Y76145D01*
X224400Y75093D01*
X225452Y74230D01*
X226652Y73589D01*
X227953Y73194D01*
X229307Y73061D01*
X230661Y73194D01*
X231962Y73589D01*
X233162Y74230D01*
X234214Y75093D01*
X235077Y76145D01*
X235718Y77345D01*
X236113Y78646D01*
X236246Y80000D01*
X236113Y81354D01*
X235718Y82655D01*
X235077Y83855D01*
X234214Y84907D01*
X233162Y85769D01*
X231962Y86411D01*
X230661Y86806D01*
X229307Y86939D01*
D02*
G37*
G36*
X410000Y263720D02*
X75000D01*
X74533Y263627D01*
X74137Y263363D01*
X73873Y262967D01*
X73780Y262500D01*
Y132500D01*
X73873Y132033D01*
X74137Y131637D01*
X74533Y131373D01*
X75000Y131280D01*
X410000D01*
X410467Y131373D01*
X410863Y131637D01*
X411127Y132033D01*
X411220Y132500D01*
X411220Y132500D01*
X411220Y132500D01*
Y132500D01*
Y262500D01*
X411127Y262967D01*
X410863Y263363D01*
X410467Y263627D01*
X410000Y263720D01*
D02*
G37*
G36*
X60681Y221571D02*
X50415D01*
Y179819D01*
X60681D01*
Y221571D01*
D02*
G37*
G36*
X232414Y123085D02*
X119819D01*
Y112819D01*
X232414D01*
Y123085D01*
D02*
G37*
G36*
X47524Y147838D02*
X45359Y147668D01*
X43248Y147161D01*
X41241Y146330D01*
X39390Y145195D01*
X37739Y143785D01*
X36329Y142134D01*
X35194Y140282D01*
X34363Y138276D01*
X33856Y136165D01*
X33686Y134000D01*
X33856Y131835D01*
X34363Y129724D01*
X35194Y127718D01*
X36329Y125866D01*
X37739Y124215D01*
X39390Y122805D01*
X41241Y121670D01*
X43248Y120839D01*
X45359Y120332D01*
X47524Y120162D01*
X49688Y120332D01*
X51800Y120839D01*
X53806Y121670D01*
X55657Y122805D01*
X57309Y124215D01*
X58719Y125866D01*
X59853Y127718D01*
X60684Y129724D01*
X61191Y131835D01*
X61361Y134000D01*
X61191Y136165D01*
X60684Y138276D01*
X59853Y140282D01*
X58719Y142134D01*
X57309Y143785D01*
X55657Y145195D01*
X53806Y146330D01*
X51800Y147161D01*
X49688Y147668D01*
X47524Y147838D01*
D02*
G37*
G36*
X55081Y252660D02*
X53727Y252527D01*
X52425Y252132D01*
X51226Y251491D01*
X50174Y250628D01*
X49311Y249576D01*
X48670Y248377D01*
X48275Y247075D01*
X48142Y245721D01*
X48275Y244368D01*
X48670Y243066D01*
X49311Y241866D01*
X50174Y240815D01*
X51226Y239952D01*
X52425Y239311D01*
X53727Y238916D01*
X55081Y238782D01*
X56435Y238916D01*
X57736Y239311D01*
X58936Y239952D01*
X59987Y240815D01*
X60850Y241866D01*
X61492Y243066D01*
X61887Y244368D01*
X62020Y245721D01*
X61887Y247075D01*
X61492Y248377D01*
X60850Y249576D01*
X59987Y250628D01*
X58936Y251491D01*
X57736Y252132D01*
X56435Y252527D01*
X55081Y252660D01*
D02*
G37*
G36*
X425160D02*
X423806Y252527D01*
X422504Y252132D01*
X421305Y251491D01*
X420253Y250628D01*
X419390Y249576D01*
X418749Y248377D01*
X418354Y247075D01*
X418221Y245721D01*
X418354Y244368D01*
X418749Y243066D01*
X419390Y241866D01*
X420253Y240815D01*
X421305Y239952D01*
X422504Y239311D01*
X423806Y238916D01*
X425160Y238782D01*
X426513Y238916D01*
X427815Y239311D01*
X429015Y239952D01*
X430066Y240815D01*
X430929Y241866D01*
X431570Y243066D01*
X431965Y244368D01*
X432099Y245721D01*
X431965Y247075D01*
X431570Y248377D01*
X430929Y249576D01*
X430066Y250628D01*
X429015Y251491D01*
X427815Y252132D01*
X426513Y252527D01*
X425160Y252660D01*
D02*
G37*
G36*
X19965Y229917D02*
X18534Y229776D01*
X17158Y229359D01*
X15890Y228681D01*
X14778Y227769D01*
X13866Y226658D01*
X13188Y225390D01*
X12771Y224014D01*
X12630Y222583D01*
X12771Y221152D01*
X13188Y219776D01*
X13866Y218508D01*
X14778Y217396D01*
X15890Y216484D01*
X17158Y215807D01*
X18534Y215389D01*
X19965Y215248D01*
X21396Y215389D01*
X22771Y215807D01*
X24039Y216484D01*
X25151Y217396D01*
X26063Y218508D01*
X26741Y219776D01*
X27158Y221152D01*
X27299Y222583D01*
X27158Y224014D01*
X26741Y225390D01*
X26063Y226658D01*
X25151Y227769D01*
X24039Y228681D01*
X22771Y229359D01*
X21396Y229776D01*
X19965Y229917D01*
D02*
G37*
G36*
X453035D02*
X451605Y229776D01*
X450229Y229359D01*
X448961Y228681D01*
X447849Y227769D01*
X446937Y226658D01*
X446259Y225390D01*
X445842Y224014D01*
X445701Y222583D01*
X445842Y221152D01*
X446259Y219776D01*
X446937Y218508D01*
X447849Y217396D01*
X448961Y216484D01*
X450229Y215807D01*
X451605Y215389D01*
X453035Y215248D01*
X454466Y215389D01*
X455842Y215807D01*
X457110Y216484D01*
X458222Y217396D01*
X459134Y218508D01*
X459812Y219776D01*
X460229Y221152D01*
X460370Y222583D01*
X460229Y224014D01*
X459812Y225390D01*
X459134Y226658D01*
X458222Y227769D01*
X457110Y228681D01*
X455842Y229359D01*
X454466Y229776D01*
X453035Y229917D01*
D02*
G37*
G36*
X140961Y88720D02*
X139672Y88550D01*
X138471Y88053D01*
X137440Y87261D01*
X136648Y86230D01*
X136151Y85029D01*
X135981Y83740D01*
X136151Y82451D01*
X136648Y81250D01*
X137440Y80219D01*
X138471Y79428D01*
X139672Y78930D01*
X140961Y78760D01*
X142250Y78930D01*
X143450Y79428D01*
X144482Y80219D01*
X145273Y81250D01*
X145771Y82451D01*
X145940Y83740D01*
X145771Y85029D01*
X145273Y86230D01*
X144482Y87261D01*
X143450Y88053D01*
X142250Y88550D01*
X140961Y88720D01*
D02*
G37*
G36*
X403000Y118480D02*
X401711Y118310D01*
X400510Y117813D01*
X400041Y117453D01*
X399047D01*
Y116459D01*
X398688Y115990D01*
X398190Y114789D01*
X398020Y113500D01*
Y101216D01*
X393429D01*
Y88980D01*
X411571D01*
Y90119D01*
X430839D01*
X434154Y86804D01*
Y85154D01*
X436092D01*
X437211Y84690D01*
X438500Y84520D01*
X439789Y84690D01*
X440908Y85154D01*
X442846D01*
Y87092D01*
X443310Y88211D01*
X443480Y89500D01*
X443310Y90789D01*
X442846Y91908D01*
Y93846D01*
X441196D01*
X436423Y98620D01*
X435391Y99411D01*
X434190Y99908D01*
X432902Y100078D01*
X432901Y100078D01*
X411571D01*
Y101216D01*
X407980D01*
Y113500D01*
X407810Y114789D01*
X407312Y115990D01*
X406953Y116459D01*
Y117453D01*
X405959D01*
X405490Y117813D01*
X404289Y118310D01*
X403000Y118480D01*
D02*
G37*
G36*
X342776Y86520D02*
X324634D01*
Y74283D01*
X342776D01*
Y86520D01*
D02*
G37*
G36*
X367571D02*
X349429D01*
Y74283D01*
X367571D01*
Y86520D01*
D02*
G37*
G36*
X342776Y111716D02*
X324634D01*
Y99480D01*
X336150D01*
X342467Y93164D01*
D01*
X342467D01*
X342467Y93164D01*
X342467Y93164D01*
X342467D01*
D01*
X342467D01*
X342467Y93164D01*
Y93164D01*
X342467Y93164D01*
Y93164D01*
X343005Y92751D01*
X343631Y92492D01*
X344303Y92403D01*
X370000D01*
X370672Y92492D01*
X371299Y92751D01*
X371836Y93164D01*
X380722Y102050D01*
X381000Y102013D01*
X382032Y102149D01*
X382993Y102547D01*
X383819Y103181D01*
X384453Y104007D01*
X384851Y104968D01*
X384987Y106000D01*
X384851Y107032D01*
X384453Y107993D01*
X383819Y108819D01*
X382993Y109453D01*
X382032Y109851D01*
X381000Y109987D01*
X379968Y109851D01*
X379007Y109453D01*
X378181Y108819D01*
X377547Y107993D01*
X377149Y107032D01*
X377013Y106000D01*
X377050Y105722D01*
X368924Y97597D01*
X345379D01*
X342776Y100200D01*
Y111716D01*
D02*
G37*
G36*
X384953Y119953D02*
X377047D01*
Y118597D01*
X362000D01*
X361328Y118509D01*
X360701Y118249D01*
X360164Y117836D01*
X356664Y114336D01*
X356251Y113798D01*
X355992Y113172D01*
X355903Y112500D01*
Y111716D01*
X349429D01*
Y99480D01*
X367571D01*
Y111716D01*
X362043D01*
X361851Y112179D01*
X363076Y113403D01*
X377047D01*
Y112047D01*
X384953D01*
Y119953D01*
D02*
G37*
G36*
X210016Y94704D02*
X208727Y94534D01*
X207526Y94037D01*
X206495Y93246D01*
X205703Y92214D01*
X205206Y91013D01*
X205036Y89724D01*
X205206Y88436D01*
X205703Y87235D01*
X206495Y86203D01*
X207526Y85412D01*
X208727Y84914D01*
X210016Y84745D01*
X211305Y84914D01*
X212506Y85412D01*
X213537Y86203D01*
X214328Y87235D01*
X214826Y88436D01*
X214995Y89724D01*
X214826Y91013D01*
X214328Y92214D01*
X213537Y93246D01*
X212506Y94037D01*
X211305Y94534D01*
X210016Y94704D01*
D02*
G37*
G36*
X21181Y178299D02*
X10915D01*
Y89319D01*
X21181D01*
Y178299D01*
D02*
G37*
%LPD*%
D10*
X279000Y92437D02*
D03*
Y84563D02*
D03*
X289000Y92437D02*
D03*
Y84563D02*
D03*
D11*
X309000Y80789D02*
D03*
Y105986D02*
D03*
X333705Y105598D02*
D03*
Y80402D02*
D03*
X358500Y105598D02*
D03*
Y80402D02*
D03*
X383500Y36098D02*
D03*
Y10902D02*
D03*
X402500Y95098D02*
D03*
Y69902D02*
D03*
D12*
X403000Y95598D02*
Y113500D01*
X402500Y95098D02*
X403000Y95598D01*
X402500Y95098D02*
X432902D01*
X438500Y89500D01*
X255913Y67087D02*
X262575D01*
X251500Y71500D02*
X255913Y67087D01*
X251500Y71500D02*
Y86000D01*
X257937Y92437D01*
X279000D01*
X289000D01*
X358402Y36098D02*
X383500D01*
X358000Y21000D02*
Y31000D01*
Y36500D01*
Y41000D01*
Y36500D02*
X358402Y36098D01*
X383500D02*
X398098D01*
X429500Y67500D01*
X451000D01*
X458500Y75000D01*
Y89500D01*
D13*
X262575Y74961D02*
X303172D01*
X309000Y80789D01*
X262575Y51339D02*
X271500Y60264D01*
Y67000D01*
X255035Y43465D02*
X262575D01*
X243500Y55000D02*
X255035Y43465D01*
X243500Y55000D02*
Y67500D01*
D14*
X370000Y95000D02*
X381000Y106000D01*
X344303Y95000D02*
X370000D01*
X333705Y105598D02*
X344303Y95000D01*
X362000Y116000D02*
X381000D01*
X358500Y112500D02*
X362000Y116000D01*
X358500Y105598D02*
Y112500D01*
D15*
X14080Y95436D02*
X13096Y94452D01*
Y92484D01*
X14080Y91500D01*
X18016D01*
X19000Y92484D01*
Y94452D01*
X18016Y95436D01*
X19000Y98387D02*
Y100355D01*
X18016Y101339D01*
X16048D01*
X15064Y100355D01*
Y98387D01*
X16048Y97404D01*
X18016D01*
X19000Y98387D01*
Y103307D02*
X15064D01*
Y106259D01*
X16048Y107243D01*
X19000D01*
Y112163D02*
Y110195D01*
X18016Y109211D01*
X16048D01*
X15064Y110195D01*
Y112163D01*
X16048Y113146D01*
X17032D01*
Y109211D01*
X15064Y119050D02*
Y116098D01*
X16048Y115114D01*
X18016D01*
X19000Y116098D01*
Y119050D01*
X14080Y122002D02*
X15064D01*
Y121018D01*
Y122986D01*
Y122002D01*
X18016D01*
X19000Y122986D01*
Y126922D02*
Y128890D01*
X18016Y129873D01*
X16048D01*
X15064Y128890D01*
Y126922D01*
X16048Y125938D01*
X18016D01*
X19000Y126922D01*
X15064Y131841D02*
X19000D01*
X17032D01*
X16048Y132825D01*
X15064Y133809D01*
Y134793D01*
X19000Y143649D02*
X15064D01*
X13096Y145616D01*
X15064Y147584D01*
X19000D01*
X16048D01*
Y143649D01*
X19000Y149552D02*
X15064D01*
Y152504D01*
X16048Y153488D01*
X19000D01*
X14080Y156440D02*
X15064D01*
Y155456D01*
Y157423D01*
Y156440D01*
X18016D01*
X19000Y157423D01*
Y163327D02*
Y161359D01*
X18016Y160375D01*
X16048D01*
X15064Y161359D01*
Y163327D01*
X16048Y164311D01*
X17032D01*
Y160375D01*
X19000Y166279D02*
X15064D01*
Y169231D01*
X16048Y170215D01*
X19000D01*
X15064Y173167D02*
Y175134D01*
X16048Y176118D01*
X19000D01*
Y173167D01*
X18016Y172183D01*
X17032Y173167D01*
Y176118D01*
X122000Y120904D02*
X125936D01*
X123968D01*
Y115000D01*
X127904Y118936D02*
Y115000D01*
Y116968D01*
X128887Y117952D01*
X129871Y118936D01*
X130855D01*
X134791D02*
X136759D01*
X137743Y117952D01*
Y115000D01*
X134791D01*
X133807Y115984D01*
X134791Y116968D01*
X137743D01*
X139711Y115000D02*
Y118936D01*
X142663D01*
X143647Y117952D01*
Y115000D01*
X145614D02*
X148566D01*
X149550Y115984D01*
X148566Y116968D01*
X146598D01*
X145614Y117952D01*
X146598Y118936D01*
X149550D01*
X151518Y115000D02*
Y118936D01*
X152502D01*
X153486Y117952D01*
Y115000D01*
Y117952D01*
X154470Y118936D01*
X155454Y117952D01*
Y115000D01*
X157422D02*
X159389D01*
X158405D01*
Y118936D01*
X157422D01*
X162341Y115000D02*
X165293D01*
X166277Y115984D01*
X165293Y116968D01*
X163325D01*
X162341Y117952D01*
X163325Y118936D01*
X166277D01*
X169229Y115000D02*
X171197D01*
X172181Y115984D01*
Y117952D01*
X171197Y118936D01*
X169229D01*
X168245Y117952D01*
Y115984D01*
X169229Y115000D01*
X174148Y118936D02*
Y115000D01*
Y116968D01*
X175132Y117952D01*
X176116Y118936D01*
X177100D01*
X189891Y120904D02*
Y115000D01*
X186940D01*
X185956Y115984D01*
Y117952D01*
X186940Y118936D01*
X189891D01*
X194811Y115000D02*
X192843D01*
X191859Y115984D01*
Y117952D01*
X192843Y118936D01*
X194811D01*
X195795Y117952D01*
Y116968D01*
X191859D01*
X203666Y118936D02*
X205634Y115000D01*
X207602Y118936D01*
X209570Y115000D02*
X211538D01*
X210554D01*
Y118936D01*
X209570D01*
X218425Y120904D02*
Y115000D01*
X215474D01*
X214490Y115984D01*
Y117952D01*
X215474Y118936D01*
X218425D01*
X223345Y115000D02*
X221377D01*
X220393Y115984D01*
Y117952D01*
X221377Y118936D01*
X223345D01*
X224329Y117952D01*
Y116968D01*
X220393D01*
X227281Y115000D02*
X229249D01*
X230233Y115984D01*
Y117952D01*
X229249Y118936D01*
X227281D01*
X226297Y117952D01*
Y115984D01*
X227281Y115000D01*
X52596Y182000D02*
X58500D01*
Y184952D01*
X57516Y185936D01*
X56532D01*
X55548Y184952D01*
Y182000D01*
Y184952D01*
X54564Y185936D01*
X53580D01*
X52596Y184952D01*
Y182000D01*
X54564Y188888D02*
Y190855D01*
X55548Y191839D01*
X58500D01*
Y188888D01*
X57516Y187904D01*
X56532Y188888D01*
Y191839D01*
X53580Y194791D02*
X54564D01*
Y193807D01*
Y195775D01*
Y194791D01*
X57516D01*
X58500Y195775D01*
Y201679D02*
Y199711D01*
X57516Y198727D01*
X55548D01*
X54564Y199711D01*
Y201679D01*
X55548Y202663D01*
X56532D01*
Y198727D01*
X54564Y204630D02*
X58500D01*
X56532D01*
X55548Y205614D01*
X54564Y206598D01*
Y207582D01*
X58500Y210534D02*
Y212502D01*
Y211518D01*
X54564D01*
Y210534D01*
Y216438D02*
Y218406D01*
X55548Y219390D01*
X58500D01*
Y216438D01*
X57516Y215454D01*
X56532Y216438D01*
Y219390D01*
X57436Y73500D02*
X54812D01*
X53500Y74812D01*
Y77436D01*
X54812Y78748D01*
X57436D01*
X58748Y77436D01*
Y76124D01*
X53500D01*
X61371Y70876D02*
Y78748D01*
X65307D01*
X66619Y77436D01*
Y74812D01*
X65307Y73500D01*
X61371D01*
X70555D02*
Y80060D01*
Y77436D01*
X69243D01*
X71867D01*
X70555D01*
Y80060D01*
X71867Y81371D01*
D16*
X449000Y138500D02*
D03*
D17*
X47524Y134000D02*
D03*
D18*
X425160Y245721D02*
D03*
Y30607D02*
D03*
X55081Y245721D02*
D03*
Y30607D02*
D03*
X229307Y80000D02*
D03*
X186000D02*
D03*
X285992Y23492D02*
D03*
X320008Y57508D02*
D03*
Y23492D02*
D03*
X285992Y57508D02*
D03*
X303000Y40500D02*
D03*
D19*
X453035Y222583D02*
D03*
Y45417D02*
D03*
X19965Y222583D02*
D03*
Y45417D02*
D03*
D20*
X381000Y96000D02*
D03*
Y106000D02*
D03*
X348000Y41000D02*
D03*
X338000Y31000D02*
D03*
X348000D02*
D03*
X338000Y21000D02*
D03*
X348000D02*
D03*
X358000D02*
D03*
Y31000D02*
D03*
Y41000D02*
D03*
X413000Y113500D02*
D03*
D21*
X381000Y116000D02*
D03*
X338000Y41000D02*
D03*
D22*
X458500Y89500D02*
D03*
X448500D02*
D03*
D23*
X438500D02*
D03*
D24*
X448400Y155100D02*
D03*
D25*
X262575Y19842D02*
D03*
Y27716D02*
D03*
Y35591D02*
D03*
Y43465D02*
D03*
Y51339D02*
D03*
Y59213D02*
D03*
Y67087D02*
D03*
Y74961D02*
D03*
Y82835D02*
D03*
D26*
X210016Y89724D02*
D03*
X140961Y35315D02*
D03*
Y83740D02*
D03*
D27*
X403000Y113500D02*
D03*
D28*
X271500Y67000D02*
D03*
X333500Y80000D02*
D03*
X243500Y67500D02*
D03*
X359000Y80000D02*
D03*
M02*
